<svg height="40" viewBox="0 0 190 40" width="190" xmlns="http://www.w3.org/2000/svg" xmlns:xlink="http://www.w3.org/1999/xlink"><linearGradient id="a"><stop offset=".16" stop-color="#31137c"/><stop offset=".2747" stop-color="#332789"/><stop offset=".509" stop-color="#385aaa"/><stop offset=".8399" stop-color="#40acdf"/><stop offset=".88" stop-color="#41b6e6"/></linearGradient><linearGradient id="b" x1="59.308994%" x2="737.270884%" xlink:href="#a" y1="50.131868%" y2="54.514987%"/><linearGradient id="c" x1="-26.446428%" x2="690.522458%" xlink:href="#a" y1="49.813208%" y2="51.273585%"/><linearGradient id="d" x1="139.359442%" x2="1232.24412%" xlink:href="#a" y1="50.52356%" y2="58.285079%"/><linearGradient id="e" x1="-2.574943%" x2="297.402517%" xlink:href="#a" y1="49.348087%" y2="53.129975%"/><linearGradient id="f" x1="-97.636311%" x2="371.188858%" xlink:href="#a" y1="48.818395%" y2="52.478765%"/><linearGradient id="g" x1="-168.684004%" x2="237.845247%" xlink:href="#a" y1="49.025612%" y2="51.000092%"/><linearGradient id="h" x1="-372.131452%" x2="167.283749%" xlink:href="#a" y1="47.146296%" y2="50.80679%"/><linearGradient id="i" x1="-238.942374%" x2="53.989268%" xlink:href="#a" y1="47.303047%" y2="49.959857%"/><g fill="none" fill-rule="evenodd" transform="translate(.207547 .5)"><path d="m143.663165 16.5c-3.693931 0-6.168865 2.1375-6.870712 6h14c-.664908-3.7125-3.324538-6-7.129288-6z"/><path d="m176.38459 16.5c-4.385749 0-7.592137 3.6324786-7.592137 8.6816239 0 4.758547 3.206388 8.3183761 7.518427 8.3183761 4.201475 0 7.481573-3.6324786 7.481573-8.3910256 0-4.9764958-3.132678-8.6089744-7.407863-8.6089744z"/><g fill-rule="nonzero" transform="translate(-.207547 -.5)"><path d="m18.1729871 9.59713518 2.6265646 8.02148612c3.0524939-.5013429 5.856529-.7520143 8.1991406-.7878245l-5.7145526-16.8307968h-9.9383523l-7.63123481 22.3813787c2.9815057-1.5040287 6.21147021-2.6857655 9.40594061-3.5094002z" fill="url(#b)"/><path d="m27.7918924 39.0689346h8.6960583l-6.4244349-18.9794091c-2.1296469.2148613-4.7562115.6803939-7.9506819 1.6472695z" fill="url(#c)"/><path d="m2.23612927 32.5514772-2.23612927 6.5174574h8.41210536l4.54324674-13.6794986c-.319447.1432408-.6033999.2864816-.922847.4297225-3.33644681 1.6114592-6.63739955 3.9749328-9.79637583 6.7323187z" fill="url(#d)"/><path d="m49.3723146 12.2829006c-1.1003176.8236348-1.6327293 1.6472695-2.3781057 3.6168308v-3.9391226h-7.3827761v27.1083258h7.3827761v-13.0707251c0-2.5783348.2484588-3.7600716 1.1003175-4.9776186 1.0293294-1.5398389 2.9105175-2.4709042 4.9336821-2.4709042.3904353 0 .9938352.0716204 1.5617411.1074306v-7.5917637c-.3904353-.0716204-.7098823-.0716204-.8873529-.0716204-1.5972352 0-3.1589763.4655327-4.3302821 1.2891674z" fill="url(#e)"/><path d="m71.2011956 17.6186213c2.1296469 0 3.9043527.7520143 5.5015879 2.3992838l4.933682-4.5120859c-3.407435-3.115488-6.7438819-4.512086-10.7192228-4.512086-8.3411172 0-14.2686344 6.087735-14.2686344 14.6463742 0 8.2721576 6.0339996 14.3598926 14.2331403 14.3598926 4.0463291 0 7.2407995-1.217547 10.3287875-4.0465533l-4.4722585-4.870188c-1.9166822 1.6830797-3.3009527 2.2918532-5.217635 2.2918532-4.2947879 0-7.382776-3.3303491-7.382776-7.9498657 0-4.4762757 3.0169998-7.8066249 7.063329-7.8066249z" fill="url(#f)"/><path d="m115.142911 10.9937332c-3.833365 0-6.317953 1.396598-8.128153 4.512086-1.277788-2.9364369-3.833364-4.512086-7.3117877-4.512086-3.4074351 0-5.6790585 1.3607878-7.382776 4.3330349v-3.4019695h-7.382776v27.1083258h7.382776v-16.1145926c0-3.7600716 1.4552587-5.6938228 4.2237997-5.6938228 2.6620587 0 4.046329 1.9337512 4.046329 5.6938228v16.1145926h7.382776v-16.3294539c0-3.4377797 1.561741-5.4431513 4.294788-5.4431513 2.768541 0 4.117318 1.7547001 4.117318 5.4431513v16.3294539h7.382776v-17.7260519c0-4.0823635-.532412-5.9803044-2.165141-7.7708147-1.455259-1.6472694-3.726883-2.5425246-6.459929-2.5425246z" fill="url(#g)"/><path d="m142.757332 10.9937332c-8.305623 0-14.162152 5.9803044-14.162152 14.4673232 0 8.4153984 6.104988 14.5389436 14.623576 14.5389436 5.679058 0 10.399776-2.9722471 13.061834-8.2721576l-6.779376-1.8621307c-1.171306 2.1486124-3.478423 3.5094002-6.21147 3.5094002-3.655894 0-6.388941-2.3276634-7.027835-6.087735h21.012517l.070988-1.4682184c0-8.7376903-5.998506-14.8254253-14.588082-14.8254253zm-6.495423 12.0322292c.709883-3.6884512 3.087988-5.7296329 6.601906-5.7296329 3.655894 0 6.21147 2.1486123 6.850364 5.7296329z" fill="url(#h)"/><path d="m182.652718 0v14.9328559c-2.626564-2.7573859-5.217635-3.9391227-8.873529-3.9391227-3.300952 0-6.566411 1.3607878-9.121987 3.7600716-2.768541 2.6499553-4.294788 6.4458371-4.294788 10.9937332 0 8.4870188 5.324117 14.2166518 13.274799 14.2166518 4.117317 0 6.672893-1.2891674 8.980011-4.512086v3.5810206h7.382776v-39.0331244zm-7.205305 34.0196956c-4.188306 0-7.2408-3.5094002-7.2408-8.2005371 0-4.9776187 3.087988-8.5586393 7.311788-8.5586393 4.117317 0 7.134317 3.5810206 7.134317 8.4870188 0 4.691137-3.158976 8.2721576-7.205305 8.2721576z" fill="url(#i)"/></g></g></svg>