<svg version="1.1" xmlns="http://www.w3.org/2000/svg" xmlns:xlink="http://www.w3.org/1999/xlink" x="0px" y="0px" viewBox="0 0 826 224" xml:space="preserve" style="transform: scale(1);">
        <title>Rutgers University</title>
        <path fill="#FFFFFF" d="M176.6,0v132.1c-0.3,12.7-2.8,24.4-7.4,35c-3.4,7.8-8.1,15.1-13.9,21.7
          c-25.3,28.6-63.7,34.8-66.1,35.1l-0.1,0l-0.8,0.1l-0.8-0.1c-0.1,0-0.3,0-0.6-0.1c-4.1-0.7-41.1-7.5-65.5-35
          C7.9,173.5,0.7,154.7,0,133l0-0.8V0H176.6z M172.1,4.6l-39.8,54.6l-87.9,0L4.5,4.6V34l34.6,25.2H25.9L4.5,39.4V132
          c0.5,21,7.3,39.1,20.3,53.7c23.4,26.4,58.9,32.9,62.9,33.6c0.2,0,0.3,0.1,0.4,0.1l0.1,0l0.2,0l0.2,0c1.6-0.2,39-6,63.5-33.6
          c5.5-6.2,9.9-13.1,13.2-20.5c4.3-9.7,6.6-20.6,7-32.2l0-0.9V39.4l-21.3,19.8h-13.2L172.1,34V4.6z M85.8,64.3v149.5
          c-9.1-1.9-37.8-9.5-57.1-31.3c-12-13.5-18.4-30.2-19-49.6l0-0.8V64.3H85.8z M166.9,64.3v67.9c-0.4,19.7-6.8,36.7-19,50.4
          c-19.1,21.6-47.4,29.2-56.8,31.2l-0.3,0.1V64.3H166.9z M303.3,62.7c0,13.7-9.3,22.7-20.7,28.3c0,0.6,0.2,1.2,0.2,1.2
          c1.6,9,14.1,32.1,18.9,40.7c10.7,19.8,38.1,59.8,58.8,59.3l0.6,0l2.4,0l0,3.3l-3.7,0.1c-29.4,1.2-55.6-31.7-70.9-58
          c-6.2-10.7-12.2-23.1-17.6-34.3c-1.3-2.9-3-4.7-4.9-5.9c-2.7-1.4-6.1-1.5-9-1.5l-0.8,0c-1.6,0-6.1,0-9.1,0l-0.9,0l0,23.6
          c0,4.3-0.3,15.1,0.8,19.3c0.9,3.2,2.8,3.7,6,4.1l0.3,0l5.8,0.5v2.7h-40.1v-2.7l5.8-0.5c3.4-0.4,5.5-0.8,6.4-4.1
          c1.2-4.1,0.9-14.5,0.9-19l0-0.3V58.8c0-4.3,0.3-15.1-0.9-19.3c-0.9-3.3-2.9-3.7-6.2-4.1l-0.3,0l-5.8-0.5v-2.7h27.4
          C270.8,32.2,303.3,28.8,303.3,62.7z M46.3,136.2h-8.8c-0.6,1-0.8,2.1-0.9,3.2l0,0.3l0.6,0.2c0.6-1.6,0.5-1.7,2.7-1.7l4.4,0
          c-0.2,0.8-0.4,1.6-1.4,3.2c-1.9,3-4.6,6-4.8,7.5c0.5,0.7,1.1,1.1,2,1.5l0.2,0.1l0.2-0.2c0.7-3.1,1-3.3,2.1-6
          c2.3-4.6,3.3-5.7,3.9-7.8l0-0.2L46.3,136.2z M67.7,135.8c-3.5,0-7.4,2.6-7.4,8.5c0,4,2.2,5.9,4.8,5.9c2.7,0,4.9-1.8,4.9-5.2
          c0-2.1-1.6-3.7-3.4-3.7c-1.1,0-1.8,0.5-2.3,0.8l-0.1,0.1l0.1,0.4c0.2,0,0.4,0,0.6,0c1.7,0,2.9,1.9,2.9,4c0,1.4-0.5,2.9-2,2.9
          c-1.9,0-2.7-2.3-2.7-5.4c0-4.9,2.3-7.4,5.2-7.4c0.7,0,1,0.1,1.3,0.2l0.1,0l0.2-0.6C69.5,136.1,68.8,135.8,67.7,135.8z M55.7,135.8
          c-3.5,0-7.4,2.6-7.4,8.5c0,4,2.2,5.9,4.8,5.9c2.7,0,4.9-1.8,4.9-5.2c0-2.1-1.6-3.7-3.4-3.7c-1.1,0-1.8,0.5-2.3,0.8l-0.1,0.1l0.1,0.4
          c0.2,0,0.4,0,0.6,0c1.7,0,2.9,1.9,2.9,4c0,1.4-0.5,2.9-2,2.9c-1.9,0-2.7-2.3-2.7-5.4c0-4.9,2.3-7.4,5.2-7.4c0.7,0,1,0.1,1.3,0.2
          l0.1,0l0.2-0.6C57.5,136.1,56.8,135.8,55.7,135.8z M129,141.1l-1.5,3l-3.3,0.5l2.4,2.3l-0.6,3.3l2.9-1.5l2.9,1.5l-0.6-3.3l2.4-2.3
          l-3.3-0.5L129,141.1z M30.8,135.8c-0.4,0.1-4,1.4-5.1,1.8l-0.1,0l0.2,0.6l1.4-0.2c0.3,0,0.5-0.1,0.7-0.1c0.4,0,0.6,0.2,0.6,2.6
          l0,6.5c0,1.9-0.1,2.1-0.9,2.2l-0.1,0l-1.4,0.2v0.6h7.4v-0.6l-1.4-0.2c-0.9-0.1-1-0.3-1-2.4l0-10.7L30.8,135.8z M552.5,50.5
          c14.4,0,25.2,3.6,28.9,5.8c0.9,5.8,1.6,13.3,2.2,20l0.1,1l-3.8,0.8c-1.4-5.7-3.3-23-27.5-23c-23.2,0-37.8,15.3-37.8,41.9
          c0,24.2,12.3,46.7,40.1,46.7c4.9,0,11-0.5,15.8-1.7l0.7-0.2l0-12.2c0-15.7-0.3-16.6-9.6-17.1l-0.3,0l-5.1-0.4v-3h36v3l-5.1,0.4
          c-2.5,0.5-2.7,1.2-2.7,13l0,2.3c0,4.4,0.3,14.9,0.3,14.9c-5,1.6-15.8,5.7-31,5.7c-28.5,0-53.9-12.5-53.9-48.7
          C499.7,61.8,530.1,50.5,552.5,50.5z M799.4,50.5c8.8,0,15.8,2.3,19.5,4.5c0.7,4.9,1.1,14.9,1.4,19.3l0,0.3h-3.5
          c-1.4-7.1-3.7-19.4-19.7-19.4c-8.2,0-15.4,6-15.4,15.5c0,8.2,5.9,12.8,13.4,17.2l0.4,0.2l7.8,4.4c11.2,6.4,22.8,12.3,22.8,29.4
          c0,19.1-17.7,26.5-32.7,26.5c-11,0-17.8-3-22.2-5.7c-1.3-5-2.7-13.9-4.2-23l-0.3-1.9l4.5-1.1c1.6,10.2,6.8,27.1,26.2,27.1
          c9.8,0,17-6.4,17-17.4c0-10.2-8.4-17.3-19.3-22.2l-0.4-0.2l-9.1-5C777.5,94.5,770,85.7,770,75C770,57.7,784.4,50.5,799.4,50.5z
          M349.7,52.6v3.1l-5.1,0.4c-5.3,0.5-5.5,1.2-5.5,16.6l0,37.2c0,20.3,3.4,33.8,25.3,33.8c14.5,0,23.3-8.6,25.5-11.3l0.1-0.1l0-59.2
          l0-0.9c0-14.8-0.3-15.6-5.4-16.1l-0.2,0l-5.1-0.4v-3.1h34.4v3.1l-5.1,0.4c-5.3,0.5-5.5,1.2-5.5,16.6l0,73.6l-4.2,1.3l-3.5-4.1
          c-2-2-3.1-4-5.2-4c-2,0-13.7,8.9-32.6,8.9c-29,0-31.7-16.6-31.7-35.6l0-0.6l0-40c0-14.8-0.3-15.6-5.4-16.1l-0.2,0l-5.1-0.4v-3.1
          H349.7z M495.9,52.6c0.6,3.1,1.2,21.5,1.3,22.5l0,0h-3.4c-3.1-16.3-3.4-18.6-22.8-18.6l-8,0l0,69.1c0,15.7,0.2,16.5,7.7,17.1l0.2,0
          l5.1,0.4v3.1h-39.2v-3.1l5.2-0.4c7.5-0.5,7.8-1.2,7.8-16.6l0-69.6h-7.4c-19.8,0-20.2,2.1-23.3,18.1l-0.1,0.5h-3.4
          c0-0.6,0.7-19,1.3-22.4l0-0.1H495.9z M661.8,52.6c0.6,3.1,1.3,18.9,1.3,20.6l0,0.1l-3.4,0.6c-3.1-15-3.4-17.3-22.8-17.3l-12.3,0v39
          l13.4,0c10.2,0,12.7-0.3,13.6-5.7l0-0.2l0.7-4.8h3.7v25.5h-3.7l-0.7-4.8c-0.8-5.7-3.3-6-13.6-6l-13.4,0v40.9
          c5.1,1,10.3,1.8,15.4,1.8c22.3,0,23.9-8.3,26.7-19.8l0.1-0.3l3.5,0.6c-1.2,8.4-2.7,15.3-4.4,22.6l-0.2,1h-64.8v-3.1l5.1-0.4
          c5.3-0.5,5.5-1.2,5.5-16.6V72.7c0-15.2-0.2-16.1-5.4-16.6l-0.2,0l-5.1-0.4v-3H661.8z M718.3,52.6c13.4,0,32.4,1.9,32.4,23.5
          c0,13.2-11.7,21-19.5,24.7c2.1,4,6.8,13.1,10.6,19.9c5.9,10.7,12.2,19,15.7,21c1.4,0.8,3.7,1.4,6.7,1.4l0.4,0v3h-10.9
          c-9.2,0-15.7-6.1-19.9-13.8l-0.2-0.4l-5.7-10.9c-3.7-7-6.9-12.4-8.8-13.9c-2.2-1.8-5.6-1.8-8.5-1.9l-5.6,0l0,20.3
          c0,15.7,0.2,16.5,5.2,17.1l0.2,0l5.1,0.4v3h-34.2v-3l5.1-0.4c5.2-0.5,5.5-1.2,5.5-16.1V72.2c0-14.8-0.3-15.6-5.4-16.1l-0.2,0
          l-5.1-0.4v-3H718.3z M115,137.1l-1.5,3l-3.3,0.5l2.4,2.3l-0.6,3.3l2.9-1.5l2.9,1.5l-0.6-3.3l2.4-2.3l-3.3-0.5L115,137.1z
          M143.1,137.1l-1.5,3l-3.3,0.5l2.4,2.3l-0.6,3.3l2.9-1.5l2.9,1.5l-0.6-3.3l2.4-2.3l-3.3-0.5L143.1,137.1z M107.1,93.5v1.7
          c-0.4-0.1-0.9-0.2-1.3-0.3l-0.7-0.2l-0.9-0.3v1.7c-0.4-0.1-0.8-0.3-1.2-0.4l-0.6-0.2l-1-0.4v36.3l0.5,0.2c5.8,2.2,10.6,2.9,14.3,2.2
          c3.8-0.7,7-0.3,9.7,1.1l0.3,0.2h2V96.4c-0.8-0.6-1.6-1-2.4-1.5c-1.2-0.6-3.2-1.2-5.9-1.2c-1.2,0-2.5,0.1-3.9,0.4
          c-0.5,0.1-1.1,0.2-1.7,0.2c-1.7,0.1-3.6-0.1-5.8-0.5l-0.5-0.1L107.1,93.5z M150.9,93.5l-0.9,0.2c-2.3,0.5-4.4,0.7-6.3,0.6
          c-0.6,0-1.1-0.1-1.7-0.2c-1.3-0.2-2.7-0.4-3.9-0.4c-2.7,0-4.7,0.6-5.9,1.2c-0.7,0.3-1.4,0.7-2,1.2l-0.4,0.3V135h2
          c2.7-1.5,6-1.9,10-1.2c3.6,0.7,8.3,0,13.8-2l0.5-0.2l0.5-0.2V95.1l-1,0.4c-0.4,0.2-0.8,0.3-1.3,0.5l-0.6,0.2v-1.7l-0.9,0.3
          c-0.4,0.1-0.9,0.3-1.3,0.4l-0.6,0.2V93.5z M102.8,97.1c0.3,0.1,0.6,0.2,1,0.3l0.5,0.1v31.8l0.5,0.2c4.5,1.4,8.4,1.8,11.5,1.2
          c4-0.7,7.5-0.3,10.2,1.3c0.1,0,0.1,0.1,0.2,0.1l0.1,0l0.2,0.1v1.3c-3-1.7-6.6-2.1-10.8-1.3c-3.3,0.6-7.5,0-12.6-1.8l-0.5-0.2V97.1z
          M155.2,97.1v33.3c-5.3,1.9-9.7,2.6-13.1,2c-4.1-0.8-7.6-0.4-10.5,1.1l-0.3,0.2v-1.3l0.2-0.1c0.1,0,0.1-0.1,0.2-0.1
          c2.7-1.6,6.2-2.1,10.2-1.3c3,0.6,6.7,0.2,10.9-1.1l0.5-0.2l0.5-0.2V97.6C154.3,97.4,154.7,97.3,155.2,97.1z M67.5,129.7H27.9v1.4
          h39.6V129.7z M105.6,96.3c0.3,0.1,0.7,0.2,1,0.3l0.5,0.1v30.6l0.6,0.1c3.2,0.7,6.1,0.9,8.5,0.4c0.9-0.2,1.9-0.3,2.8-0.3
          c0.3,0,0.6,0,0.9,0c0.1,0,0.2,0,0.4,0c3.4,0.1,5.3,1.1,6.1,1.6l0.1,0l0.4,0.2v1.4c-3-1.7-6.6-2.1-10.8-1.3c-2.6,0.5-5.9,0.2-9.8-0.9
          l-0.5-0.1V96.3z M152.4,96.3v32.1c-4.1,1.2-7.5,1.5-10.3,1c-4.1-0.8-7.6-0.4-10.5,1.2l-0.3,0.2v-1.4l0.4-0.2
          c0.7-0.4,2.7-1.6,6.2-1.7c0.1,0,0.2,0,0.4,0c0.3,0,0.6,0,0.9,0c0.9,0,1.8,0.1,2.8,0.3c2.3,0.4,5,0.3,8-0.3l0.5-0.1l0.6-0.1V96.7
          C151.4,96.6,151.9,96.4,152.4,96.3z M67.5,126.8H27.9v1.4h39.6V126.8z M48.9,93h-2.3c-0.9,1.7-2.6,2.8-4.4,2.9l-0.2,0l-0.2,0l-0.2,0
          c-1.7,0-3.4-0.4-4.9-1.1c-0.2-0.1-0.4-0.2-0.6-0.3c-1.3-0.6-2.7-0.9-4.1-0.9c-5.4,0-9.8,4.4-9.8,9.9c0,2.6,1.3,5.2,3.6,7.7
          c0.1,0.1,0.1,0.1,0.2,0.2c1.4,1.6,2.3,3.5,2.6,5.5c0.1,0.5,0.1,1.1,0.1,1.6c0,1.4-0.3,2.7-0.7,3.9l-0.2,0.4v2.2h39.6v-2.4
          c-0.4-1-0.7-2-0.8-3.1l0-0.4V118c0-0.4,0.1-0.7,0.1-1.1c0.3-2,1.2-3.9,2.6-5.5c0-0.1,0.1-0.1,0.2-0.2c2.4-2.5,3.7-5.2,3.7-7.8
          c0-5.4-4.4-9.9-9.8-9.9c-1.3,0-2.6,0.2-3.8,0.8c-0.4,0.2-0.8,0.3-1.1,0.6c-1.4,0.6-2.7,0.9-4.2,0.9l-0.4,0h-0.1c-0.2,0-0.3,0-0.5,0
          C51.5,95.8,49.8,94.7,48.9,93z M120,120.9c1.2,0,2.5,0.2,3.7,0.6l0.4,0.1v1.8c-1.4-0.6-2.8-0.9-4.1-0.9c-0.9,0-1.5,0.1-2.2,0.3
          c-0.6,0.1-1.4,0.3-2.4,0.4c-1.2,0.1-2.4,0-3.5-0.2l-0.5-0.1v-1.7c1.3,0.3,2.6,0.4,3.9,0.3c0.9-0.1,1.5-0.2,2.2-0.3
          C118.2,121.1,119,120.9,120,120.9z M138,120.9c1,0,1.8,0.2,2.5,0.3c0.6,0.1,1.3,0.3,2.2,0.3c1.1,0.1,2.3,0,3.4-0.2l0.5-0.1v1.7
          c-1.3,0.3-2.7,0.3-4,0.2c-1-0.1-1.7-0.2-2.4-0.4c-0.7-0.2-1.3-0.3-2.2-0.3c-1.2,0-2.5,0.2-3.8,0.7l-0.3,0.1v-1.8
          C135.3,121.1,136.7,120.9,138,120.9z M37.4,117.7v4.8h-4.6v-4.8H37.4z M62.7,117.7v4.8H58v-4.8H62.7z M45.8,117.7l0,0.4v4.3h-4.6
          v-4.8H45.8z M54.3,117.7v4.8h-4.6v-4.8H54.3z M138,116.4c1,0,1.8,0.2,2.5,0.3c0.6,0.1,1.3,0.3,2.2,0.3c1.1,0.1,2.3,0,3.4-0.2
          l0.5-0.1v1.7c-1.3,0.3-2.7,0.4-4,0.3c-1-0.1-1.7-0.2-2.4-0.4c-0.7-0.1-1.3-0.3-2.2-0.3c-1.2,0-2.5,0.2-3.7,0.7l-0.4,0.2v-1.8
          C135.3,116.6,136.7,116.4,138,116.4z M120,116.4c1.2,0,2.5,0.2,3.7,0.6l0.4,0.1v1.8c-1.4-0.6-2.8-0.9-4.1-0.9
          c-0.9,0-1.5,0.1-2.2,0.3c-0.6,0.1-1.4,0.3-2.4,0.4c-1.2,0.1-2.4,0-3.5-0.2l-0.5-0.1v-1.7c1.3,0.3,2.6,0.4,3.9,0.3
          c0.9-0.1,1.5-0.2,2.2-0.3C118.2,116.6,119,116.4,120,116.4z M32,97.8c0.8,0,1.5,0.2,2.2,0.5c0.2,0.1,0.4,0.2,0.7,0.3
          c2.1,1,4.4,1.5,6.7,1.5c0.1,0,0.2,0,0.2,0c0.2,0,0.4,0,0.5,0c0.9-0.1,1.7-0.2,2.5-0.5l0.3-0.1l0.5-0.2v15.4H32.5l-0.1-0.3
          c-0.6-2.2-1.8-4.2-3.3-5.9c-2.3-2.5-2.7-3.2-2.7-5C26.4,100.3,28.9,97.8,32,97.8z M63.4,97.8c3.1,0,5.6,2.5,5.6,5.6
          c0,1.8-2.4,4.7-2.7,5c-1.5,1.6-2.5,3.4-3.2,5.4l-0.1,0.4l-0.1,0.3H49.7V99.2l0.5,0.2c0.9,0.4,1.9,0.6,2.9,0.6c0.2,0,0.4,0,0.6,0
          c0.1,0,0.2,0,0.3,0c2,0,3.9-0.4,5.8-1.1l0.4-0.2l0.5-0.3c0.2-0.1,0.4-0.2,0.6-0.3C62,98,62.7,97.8,63.4,97.8z M123.8,112.5l0.4,0.1
          v1.8c-1.4-0.6-2.8-0.9-4.1-0.9c-0.9,0-1.5,0.1-2.2,0.3c-0.7,0.1-1.4,0.3-2.4,0.4c-1.2,0.1-2.4,0-3.5-0.2l-0.5-0.1v-1.7
          c1.3,0.3,2.6,0.4,3.9,0.3c0.9-0.1,1.5-0.2,2.2-0.3c0.7-0.2,1.5-0.3,2.5-0.3C121.3,111.8,122.5,112.1,123.8,112.5z M137.6,111.9
          l0.4,0c1,0,1.8,0.2,2.5,0.3c0.6,0.1,1.3,0.3,2.2,0.3c1.1,0.1,2.3,0,3.4-0.2l0.5-0.1v1.7c-1.3,0.3-2.7,0.4-4,0.2
          c-1-0.1-1.7-0.2-2.4-0.4c-0.7-0.1-1.3-0.3-2.2-0.3c-1.2,0-2.5,0.2-3.8,0.7l-0.3,0.1v-1.8c1.1-0.4,2.3-0.7,3.4-0.7L137.6,111.9z
          M123.8,108l0.4,0.1v1.8c-1.4-0.6-2.8-0.9-4.1-0.9c-0.9,0-1.5,0.1-2.2,0.3c-0.6,0.1-1.4,0.3-2.4,0.4c-1.2,0.1-2.4,0-3.5-0.2
          l-0.5-0.1v-1.7c1.3,0.3,2.6,0.4,3.9,0.3c0.9-0.1,1.5-0.2,2.2-0.3c0.7-0.2,1.5-0.3,2.5-0.3C121.2,107.3,122.5,107.5,123.8,108z
          M137.7,107.3l0.4,0c1,0,1.8,0.2,2.5,0.3c0.6,0.1,1.3,0.3,2.2,0.3c1.1,0.1,2.3,0,3.4-0.2l0.5-0.1v1.7c-1.3,0.3-2.7,0.3-4,0.2
          c-1-0.1-1.7-0.2-2.4-0.4c-0.7-0.2-1.3-0.3-2.2-0.3c-1.2,0-2.5,0.2-3.7,0.7l-0.4,0.2v-1.8c1.1-0.4,2.3-0.7,3.4-0.7L137.7,107.3z
          M123.8,103.5l0.4,0.1v1.8c-1.4-0.6-2.8-0.9-4.1-0.9c-0.9,0-1.5,0.1-2.2,0.3c-0.6,0.1-1.4,0.3-2.4,0.4c-1.2,0.1-2.4,0-3.5-0.2
          l-0.5-0.1v-1.7c1.3,0.3,2.6,0.4,3.9,0.3c0.9-0.1,1.5-0.2,2.2-0.3c0.7-0.2,1.5-0.3,2.5-0.3C121.2,102.8,122.5,103,123.8,103.5z
          M137.6,102.8l0.4,0c1,0,1.8,0.2,2.5,0.3c0.6,0.1,1.3,0.3,2.2,0.3c1.1,0.1,2.3,0,3.4-0.2l0.5-0.1v1.7c-1.3,0.3-2.7,0.3-4,0.2
          c-1-0.1-1.7-0.2-2.4-0.4c-0.7-0.1-1.3-0.3-2.2-0.3c-1.2,0-2.5,0.2-3.8,0.7l-0.3,0.1v-1.8c1.1-0.4,2.3-0.7,3.4-0.7L137.6,102.8z
          M713.9,57.3c-2.7,0-5.5,0.5-8.1,1l-0.7,0.1v43h8.1c11.9,0,22.6-6.4,22.6-22.4C735.9,62.4,725,57.3,713.9,57.3z M138,98.3
          c1,0,1.8,0.2,2.5,0.3c0.6,0.1,1.3,0.3,2.2,0.3c1.1,0.1,2.3,0,3.4-0.2l0.5-0.1v1.7c-1.3,0.3-2.7,0.3-4,0.3c-1-0.1-1.7-0.2-2.4-0.4
          c-0.7-0.1-1.3-0.3-2.2-0.3c-1.2,0-2.5,0.2-3.8,0.7l-0.3,0.1v-1.8C135.3,98.6,136.7,98.3,138,98.3z M120,98.3c1.2,0,2.5,0.2,3.7,0.6
          l0.4,0.1v1.8c-1.4-0.6-2.8-0.9-4.1-0.9c-0.9,0-1.5,0.1-2.2,0.3c-0.7,0.1-1.4,0.3-2.4,0.4c-1.2,0.1-2.4,0-3.5-0.2l-0.5-0.1v-1.7
          c1.3,0.3,2.6,0.4,3.9,0.3c0.9-0.1,1.5-0.2,2.2-0.3C118.2,98.5,119,98.3,120,98.3z M258,36.8c-3.6,0-7.1,0.6-10.6,1.3l-0.7,0.1
          l0,53.9c4.3,0.2,9-0.1,13.3-0.1c16.8,0,27-9,27-25.8C287,48,276.6,36.8,258,36.8z M47.7,84.3c-1.9,0-3.5,1.6-3.5,3.5
          c0,1.9,1.6,3.5,3.5,3.5c1.9,0,3.5-1.6,3.5-3.5C51.2,85.8,49.6,84.3,47.7,84.3z M170,4.5h-26l-24,52.3l1.1,0.7L170,4.5z M32.6,4.5
          H6.8l48.8,53l1.1-0.7L32.6,4.5z M55.5,4.5H36.6l29,47.5l1.2-0.5L55.5,4.5z M140.2,4.5h-19l-11.3,47l1.2,0.5L140.2,4.5z M75.9,4.5
          H60.2l16.2,44.1l1.2-0.2L75.9,4.5z M116.5,4.5h-15.7L99,48.3l1.3,0.3L116.5,4.5z M95.8,4.5H81l6.7,42.9h1.3L95.8,4.5z">
  </path>
</svg>